<svg id="icons" xmlns="http://www.w3.org/2000/svg" xmlns:xlink="http://www.w3.org/1999/xlink" viewBox="0 0 397.89 401.33"><defs><style>.cls-1{fill:#222a51;}.cls-2{fill:#fff;}.cls-3{fill:#c6c7c7;}.cls-4{fill:none;stroke-miterlimit:10;stroke-width:8px;stroke:url(#radial-gradient);}</style><radialGradient id="radial-gradient" cx="832.38" cy="562.5" r="156" gradientTransform="translate(-868.61 -527.13) scale(1.28 1.29)" gradientUnits="userSpaceOnUse"><stop offset="0" stop-color="#fff"/><stop offset="1" stop-color="#c6c7c7"/></radialGradient></defs><title>directsupply</title><g id="direct_supply" data-name="direct supply"><g id="Layer_14" data-name="Layer 14"><path id="_2factory" data-name="2factory" class="cls-1" d="M700,514.37V648.63a4.37,4.37,0,0,0,4.37,4.37h88.26a4.37,4.37,0,0,0,4.37-4.37V549.37a4.37,4.37,0,0,1,4.37-4.37H934.63a4.37,4.37,0,0,0,4.37-4.37V514.37a4.37,4.37,0,0,0-4.37-4.37H704.37A4.37,4.37,0,0,0,700,514.37Z" transform="translate(-653.85 -328.28)"/></g><g id="Layer_12" data-name="Layer 12"><g id="_2truck" data-name="2truck"><circle class="cls-2" cx="249.15" cy="324.72" r="9.18"/><circle class="cls-2" cx="318.15" cy="324.72" r="9.18"/><polygon class="cls-2" points="297.15 241.47 297.15 272.97 333.06 272.97 314.79 241.47 297.15 241.47"/><path class="cls-1" d="M801,553.37v95.26a4.37,4.37,0,0,0,4.37,4.37h7.32a4.34,4.34,0,0,0,4.31-3.52,20.31,20.31,0,0,1,40,0,4.34,4.34,0,0,0,4.31,3.52h17.38a4.34,4.34,0,0,0,4.31-3.52,20.31,20.31,0,0,1,40,0,4.34,4.34,0,0,0,4.31,3.52h7.32a4.37,4.37,0,0,0,4.37-4.37V553.37a4.37,4.37,0,0,0-4.37-4.37H805.37A4.37,4.37,0,0,0,801,553.37Z" transform="translate(-653.85 -328.28)"/><path class="cls-1" d="M1000.46,611.07,973.16,564a4,4,0,0,0-3.47-2H948.37a4.37,4.37,0,0,0-4.37,4.37V649a4,4,0,0,0,4,4,4.06,4.06,0,0,0,4-3.44,20.3,20.3,0,0,1,40,0,4.06,4.06,0,0,0,4,3.44h1a4,4,0,0,0,4-4v-35.9A4,4,0,0,0,1000.46,611.07Zm-20.53-9.82H955a4,4,0,0,1-4-4V573.77a4,4,0,0,1,4-4h11.31a4,4,0,0,1,3.48,2l13.61,23.47A4,4,0,0,1,979.93,601.25Z" transform="translate(-653.85 -328.28)"/><path class="cls-1" d="M837,636.7A15.3,15.3,0,1,0,852.3,652,15.3,15.3,0,0,0,837,636.7Zm0,24.48a9.18,9.18,0,1,1,9.18-9.18A9.18,9.18,0,0,1,837,661.18Z" transform="translate(-653.85 -328.28)"/><path class="cls-1" d="M903,637.7A15.3,15.3,0,1,0,918.3,653,15.3,15.3,0,0,0,903,637.7Zm0,24.48a9.18,9.18,0,1,1,9.18-9.18A9.18,9.18,0,0,1,903,662.18Z" transform="translate(-653.85 -328.28)"/><path class="cls-1" d="M972,637.7A15.3,15.3,0,1,0,987.3,653,15.3,15.3,0,0,0,972,637.7Zm0,24.48a9.18,9.18,0,1,1,9.18-9.18A9.18,9.18,0,0,1,972,662.18Z" transform="translate(-653.85 -328.28)"/><circle class="cls-2" cx="183.15" cy="323.72" r="9.18"/></g></g><g id="Layer_11" data-name="Layer 11"><g id="smoke"><path class="cls-3" d="M686,376.88" transform="translate(-653.85 -328.28)"/><path class="cls-3" d="M686,376.88H724l-33-16.65a3.5,3.5,0,0,0-5.08,3.12Z" transform="translate(-653.85 -328.28)"/><path class="cls-3" d="M724,363.35v13.53H762.1l-33-16.65A3.5,3.5,0,0,0,724,363.35Z" transform="translate(-653.85 -328.28)"/></g></g><g id="Layer_9" data-name="Layer 9"><g id="Layer_26" data-name="Layer 26"><g id="Layer_29" data-name="Layer 29"><path class="cls-1" d="M773.08,479H716.92a4.36,4.36,0,0,1-4.34-4.88l10.57-89.27a4.38,4.38,0,0,1,4.34-3.85h35a4.38,4.38,0,0,1,4.34,3.85l10.57,89.27A4.36,4.36,0,0,1,773.08,479Z" transform="translate(-653.85 -328.28)"/></g><g id="Layer_28" data-name="Layer 28"><path class="cls-1" d="M714.37,483h61.26a4.37,4.37,0,0,1,3.66,2l9.3,14.26a4.37,4.37,0,0,1-3.66,6.76H705.07a4.37,4.37,0,0,1-3.66-6.76l9.3-14.26A4.37,4.37,0,0,1,714.37,483Z" transform="translate(-653.85 -328.28)"/></g></g></g><g id="Layer_21" data-name="Layer 21"><rect id="frame2" class="cls-4" x="4" y="4" width="389.89" height="393.33" rx="12"/></g></g></svg>