<svg id="icons" xmlns="http://www.w3.org/2000/svg" xmlns:xlink="http://www.w3.org/1999/xlink" viewBox="0 0 397.89 401.33"><defs><style>.cls-1,.cls-3{fill:none;stroke-miterlimit:10;}.cls-1{stroke-width:8px;stroke:url(#radial-gradient);}.cls-2{fill:#222a51;}.cls-3{stroke:#fff;stroke-width:3px;}.cls-4{fill:#fff;}</style><radialGradient id="radial-gradient" cx="198.95" cy="200.66" r="199.81" gradientUnits="userSpaceOnUse"><stop offset="0" stop-color="#fff"/><stop offset="1" stop-color="#c6c7c7"/></radialGradient></defs><title>licensed</title><g id="big_stamp" data-name="big stamp"><rect id="frame3" class="cls-1" x="4" y="4" width="389.89" height="393.33" rx="12"/><g id="big_stamp-2" data-name="big stamp"><path class="cls-2" d="M246.6,525c0-9.38,8.84-17.76,10.6-26.62,1.8-9.13-3.13-20.25.36-28.65,3.54-8.55,14.93-12.92,20-20.51s4.83-19.84,11.32-26.33,18.67-6.19,26.33-11.32,12-16.47,20.51-20c8.4-3.49,19.52,1.44,28.65-.36,8.86-1.76,17.24-10.6,26.62-10.6s17.76,8.84,26.62,10.6c9.13,1.8,20.25-3.13,28.65.36,8.55,3.54,12.92,14.93,20.51,20s19.84,4.83,26.33,11.32,6.19,18.67,11.32,26.33,16.47,12,20,20.51c3.49,8.4-1.44,19.52.36,28.65,1.76,8.86,10.6,17.24,10.6,26.62s-8.84,17.76-10.6,26.62c-1.8,9.13,3.13,20.25-.36,28.65-3.54,8.55-14.93,12.92-20,20.51s-4.83,19.84-11.32,26.33-18.67,6.19-26.33,11.32-12,16.47-20.51,20c-8.4,3.49-19.52-1.44-28.65.36-8.86,1.76-17.24,10.6-26.62,10.6s-17.76-8.84-26.62-10.6c-9.13-1.8-20.25,3.13-28.65-.36-8.55-3.54-12.92-14.93-20.51-20s-19.84-4.83-26.33-11.32-6.19-18.67-11.32-26.33-16.47-12-20-20.51c-3.49-8.4,1.44-19.52-.36-28.65C255.44,542.76,246.6,534.38,246.6,525Z" transform="translate(-192.44 -327.77)"/><circle class="cls-3" cx="199.22" cy="197.29" r="118.94"/><circle class="cls-3" cx="199.22" cy="197.29" r="126.08"/><path id="checkmark" class="cls-4" d="M442.1,493.37l-69.24,68.75a8.44,8.44,0,0,1-11.91,0l-24.42-24.24a8.45,8.45,0,1,1,11.91-12L361,538.3a8.46,8.46,0,0,0,11.91,0l57.32-56.93a8.46,8.46,0,0,1,11.94,0h0A8.46,8.46,0,0,1,442.1,493.37Z" transform="translate(-192.44 -327.77)"/><circle class="cls-3" cx="199.06" cy="197.73" r="74"/><circle class="cls-3" cx="199.06" cy="197.73" r="81.4"/><text x="-192.44" y="-327.77"/></g></g></svg>