<?xml version="1.0" standalone="no"?>
<!DOCTYPE svg PUBLIC "-//W3C//DTD SVG 20010904//EN"
 "http://www.w3.org/TR/2001/REC-SVG-20010904/DTD/svg10.dtd">
<svg version="1.0" xmlns="http://www.w3.org/2000/svg"
 width="260.000000pt" height="260.000000pt" viewBox="0 0 260.000000 260.000000"
 preserveAspectRatio="xMidYMid meet">
<metadata>
Created by potrace 1.11, written by Peter Selinger 2001-2013
</metadata>
<g transform="translate(0.000000,260.000000) scale(0.100000,-0.100000)"
fill="#000000" stroke="none">
<path d="M470 2400 c0 -110 3 -200 8 -201 57 -5 295 -2 299 4 3 5 5 40 5 78
l0 69 519 0 519 0 1 -32 c1 -18 1 -52 1 -75 0 -27 4 -43 11 -44 7 0 74 -1 150
-2 115 -2 140 1 146 13 4 8 7 98 6 200 l-1 185 -156 3 -156 2 1 -75 c0 -41 -3
-78 -7 -82 -7 -7 -1002 -12 -1023 -5 -8 2 -12 23 -12 55 1 29 1 64 0 80 l-1
27 -155 0 -155 0 0 -200z"/>
<path d="M473 1436 c2 -369 7 -689 11 -711 69 -375 268 -612 584 -696 98 -27
296 -34 402 -14 253 45 470 217 574 453 34 77 73 229 82 319 7 69 12 1260 6
1299 -4 20 -9 21 -155 20 l-152 -1 -1 -590 c-1 -324 -4 -626 -8 -671 -6 -81
-38 -199 -71 -264 -55 -109 -160 -201 -272 -236 -87 -28 -277 -26 -357 4 -160
59 -255 175 -312 383 -16 57 -18 130 -20 704 -2 352 -3 647 -3 655 -1 14 -24
16 -157 16 l-155 1 4 -671z"/>
</g>
</svg>
