<svg id="icons" xmlns="http://www.w3.org/2000/svg" xmlns:xlink="http://www.w3.org/1999/xlink" viewBox="0 0 397.89 401.33"><defs><style>.cls-1{fill:#222a51;}.cls-2{fill:#c6c7c7;}.cls-3{fill:none;stroke-width:8px;stroke:url(#radial-gradient);}.cls-3,.cls-4{stroke-miterlimit:10;}.cls-4{fill:#fff;stroke:#000;}</style><radialGradient id="radial-gradient" cx="198.95" cy="200.66" r="199.81" gradientUnits="userSpaceOnUse"><stop offset="0" stop-color="#fff"/><stop offset="1" stop-color="#c6c7c7"/></radialGradient></defs><title>selection</title><g id="selection"><path class="cls-1" d="M1317.75,364h-82.5a3.26,3.26,0,0,0-3.25,3.25v82.5a3.26,3.26,0,0,0,3.25,3.25h82.5a3.26,3.26,0,0,0,3.25-3.25v-82.5A3.26,3.26,0,0,0,1317.75,364Zm-21.1,28.83L1270,419.28a3.25,3.25,0,0,1-4.58,0l-9.39-9.33a3.25,3.25,0,0,1,0-4.62h0a3.24,3.24,0,0,1,4.57,0l4.81,4.77a3.25,3.25,0,0,0,4.58,0l22-21.89a3.25,3.25,0,0,1,4.59,0h0A3.24,3.24,0,0,1,1296.65,392.83Z" transform="translate(-1075.68 -329.28)"/><path class="cls-2" d="M1410.76,364h-82.52a3.25,3.25,0,0,0-3.24,3.24v82.52a3.25,3.25,0,0,0,3.24,3.24h82.52a3.25,3.25,0,0,0,3.24-3.24V367.24A3.25,3.25,0,0,0,1410.76,364Zm-22.35,58.39a3.24,3.24,0,0,1,0,4.59h0a3.25,3.25,0,0,1-4.58,0l-12-12a3.23,3.23,0,0,0-4.58,0l-12,12a3.25,3.25,0,0,1-4.58,0h0a3.24,3.24,0,0,1,0-4.59l12-12a3.26,3.26,0,0,0,0-4.59l-12-12a3.24,3.24,0,0,1,0-4.59h0a3.25,3.25,0,0,1,4.58,0l12,12a3.23,3.23,0,0,0,4.58,0l12-12a3.25,3.25,0,0,1,4.58,0h0a3.24,3.24,0,0,1,0,4.59l-12,12a3.26,3.26,0,0,0,0,4.59Z" transform="translate(-1075.68 -329.28)"/><path class="cls-2" d="M1224.76,364h-82.52a3.25,3.25,0,0,0-3.24,3.24v82.52a3.25,3.25,0,0,0,3.24,3.24h82.52a3.25,3.25,0,0,0,3.24-3.24V367.24A3.25,3.25,0,0,0,1224.76,364Zm-22.35,58.39a3.24,3.24,0,0,1,0,4.59h0a3.25,3.25,0,0,1-4.58,0l-12-12a3.23,3.23,0,0,0-4.58,0l-12,12a3.25,3.25,0,0,1-4.58,0h0a3.24,3.24,0,0,1,0-4.59l12-12a3.26,3.26,0,0,0,0-4.59l-12-12a3.24,3.24,0,0,1,0-4.59h0a3.25,3.25,0,0,1,4.58,0l12,12a3.23,3.23,0,0,0,4.58,0l12-12a3.25,3.25,0,0,1,4.58,0h0a3.24,3.24,0,0,1,0,4.59l-12,12a3.26,3.26,0,0,0,0,4.59Z" transform="translate(-1075.68 -329.28)"/><path class="cls-1" d="M1352.67,563.27l-6.77-.39a10.89,10.89,0,0,0-9.28,4.29l-.15-11.89A11.45,11.45,0,0,0,1324.91,544l-7.59.11a11.43,11.43,0,0,0-11.25,11.55l-.15-11.4A11.45,11.45,0,0,0,1294.37,533l-7.6.1a11.43,11.43,0,0,0-10.42,7.15l-2-63.27c0-.49-.06-1-.11-1.46,0-.32-.09-.63-.14-.95,0-.09,0-.19-.05-.28-1.36-7.59-7.31-12.76-13-12.68s-11.47,5.4-12.64,13a2.36,2.36,0,0,1,0,.28c0,.32-.08.63-.11,1s-.07,1-.07,1.46l-.48,110.27q-2-2.21-4.42-4.55c-4-3.92-8.79-8.53-15-12-11.06-6.29-29.25-10.47-35.9-3-2.59,2.93-3.48,7.86-1.79,11.08,2.24,4.25,7.79,3.28,13.53,5.45,4.06,1.53,8.87,4.75,23.69,34.38,2.75,5.5,6.48,13.2,10.71,22.62,2.16,4.83,22.67,40.64,59.12,43.45,24.28,1.88,46.19-11.94,54.16-24.49a63.19,63.19,0,0,0,7.1-16,91.62,91.62,0,0,0,2.38-16.59c.32-4.2.37-7.12.44-9q.75-22.15,1.5-44A11.39,11.39,0,0,0,1352.67,563.27Z" transform="translate(-1075.68 -329.28)"/><rect id="frame1" class="cls-3" x="4" y="4" width="389.89" height="393.33" rx="12"/><path class="cls-4" d="M1089.5,325.5" transform="translate(-1075.68 -329.28)"/></g></svg>