<svg id="icons" xmlns="http://www.w3.org/2000/svg" xmlns:xlink="http://www.w3.org/1999/xlink" viewBox="0 0 397.89 401.33"><defs><style>.cls-1{fill:#c6c7c7;}.cls-2{fill:#222a51;}.cls-3,.cls-5{fill:none;stroke-miterlimit:10;}.cls-3{stroke:#fff;stroke-width:3px;}.cls-4{fill:#fff;}.cls-5{stroke-width:8px;stroke:url(#radial-gradient);}</style><radialGradient id="radial-gradient" cx="1484" cy="563.08" r="156" gradientTransform="translate(-1704.34 -527.87) scale(1.28 1.29)" gradientUnits="userSpaceOnUse"><stop offset="0" stop-color="#fff"/><stop offset="1" stop-color="#c6c7c7"/></radialGradient></defs><title>sheet</title><g id="sheet"><rect id="sheet-2" data-name="sheet" class="cls-1" x="84.88" y="35.26" width="233.1" height="321.24" rx="4.37"/><rect class="cls-2" x="117.2" y="112.12" width="47.68" height="3.86" rx="1.93"/><rect class="cls-2" x="203.2" y="131.12" width="47.68" height="3.86" rx="1.93"/><rect class="cls-2" x="117.2" y="131.12" width="18.21" height="3.86" rx="1.93"/><rect class="cls-2" x="262.2" y="112.12" width="18.21" height="3.86" rx="1.93"/><rect class="cls-2" x="140.08" y="131.12" width="58.12" height="3.86" rx="1.93"/><rect class="cls-2" x="200.08" y="112.12" width="58.12" height="3.86" rx="1.93"/><rect class="cls-2" x="255.35" y="131.12" width="24.85" height="3.86" rx="1.93"/><rect class="cls-2" x="170.35" y="112.12" width="24.85" height="3.86" rx="1.93"/><g id="text"><rect class="cls-2" x="117.2" y="150.12" width="18.21" height="3.86" rx="1.93"/><rect class="cls-2" x="117.2" y="169.12" width="47.68" height="3.86" rx="1.93"/><rect class="cls-2" x="203.2" y="188.12" width="47.68" height="3.86" rx="1.93"/><rect class="cls-2" x="140.2" y="150.12" width="47.68" height="3.86" rx="1.93"/><rect class="cls-2" x="117.2" y="188.12" width="18.21" height="3.86" rx="1.93"/><rect class="cls-2" x="262.2" y="169.12" width="18.21" height="3.86" rx="1.93"/><rect class="cls-2" x="140.08" y="188.12" width="58.12" height="3.86" rx="1.93"/><rect class="cls-2" x="192.08" y="150.12" width="58.12" height="3.86" rx="1.93"/><rect class="cls-2" x="200.08" y="169.12" width="58.12" height="3.86" rx="1.93"/><rect class="cls-2" x="255.35" y="150.12" width="24.85" height="3.86" rx="1.93"/><rect class="cls-2" x="255.35" y="188.12" width="24.85" height="3.86" rx="1.93"/><rect class="cls-2" x="170.35" y="169.12" width="24.85" height="3.86" rx="1.93"/></g><path class="cls-2" d="M1666.8,364.2v55.85a4.37,4.37,0,0,0,7.46,3.09l11.35-11.35a4.38,4.38,0,0,1,6.18,0l12,11.74a4.37,4.37,0,0,0,7.43-3.13V364.2Z" transform="translate(-1489.57 -329.02)"/><g id="stamp"><path class="cls-2" d="M1638,598c0-3.61,2.33-6.94,3-10.34s-.18-7.48,1.16-10.71,4.8-5.48,6.76-8.4,2.68-6.94,5.18-9.44,6.5-3.21,9.44-5.18,5.11-5.39,8.4-6.76,7.19-.47,10.71-1.16,6.73-3,10.34-3,6.94,2.33,10.34,3,7.48-.18,10.71,1.16,5.48,4.8,8.4,6.76,6.94,2.68,9.44,5.18,3.21,6.5,5.18,9.44,5.39,5.11,6.76,8.4.47,7.19,1.16,10.71,3,6.73,3,10.34-2.33,6.94-3,10.34.18,7.48-1.16,10.71-4.8,5.48-6.76,8.4-2.68,6.94-5.18,9.44-6.5,3.21-9.44,5.18-5.11,5.39-8.4,6.76-7.19.47-10.71,1.16-6.73,3-10.34,3-6.94-2.33-10.34-3-7.48.18-10.71-1.16-5.48-4.8-8.4-6.76-6.94-2.68-9.44-5.18-3.21-6.5-5.18-9.44-5.39-5.11-6.76-8.4-.47-7.19-1.16-10.71S1638,601.61,1638,598Z" transform="translate(-1489.57 -329.02)"/><circle class="cls-3" cx="203.68" cy="269.01" r="37.81"/><path class="cls-4" d="M1712.65,585.83,1686,612.28a3.25,3.25,0,0,1-4.58,0l-9.39-9.33a3.25,3.25,0,1,1,4.58-4.61l4.81,4.77a3.25,3.25,0,0,0,4.58,0l22-21.89a3.25,3.25,0,0,1,4.59,0h0A3.24,3.24,0,0,1,1712.65,585.83Z" transform="translate(-1489.57 -329.02)"/></g><rect id="frame3" class="cls-5" x="4" y="4" width="389.89" height="393.33" rx="12"/></g></svg>